<svg width="37" height="36" viewBox="0 0 37 36" fill="none" xmlns="http://www.w3.org/2000/svg">
<path d="M14.1484 21.0015C15.6281 21.0015 16.8262 22.1775 16.8262 23.6265V28.8765C16.8262 29.5727 16.5441 30.2404 16.0419 30.7327C15.5397 31.225 14.8586 31.5015 14.1484 31.5015H5.7384C5.02819 31.5015 4.34707 31.225 3.84487 30.7327C3.34268 30.2404 3.06055 29.5727 3.06055 28.8765V23.6265C3.06055 22.1775 4.26022 21.0015 5.7384 21.0015H14.1484ZM30.9867 21.0015C32.4649 21.0015 33.6646 22.1775 33.6646 23.6265V28.8765C33.6646 29.5727 33.3825 30.2404 32.8803 30.7327C32.3781 31.225 31.6969 31.5015 30.9867 31.5015H22.5767C21.8665 31.5015 21.1854 31.225 20.6832 30.7327C20.181 30.2404 19.8989 29.5727 19.8989 28.8765V23.6265C19.8989 22.1775 21.097 21.0015 22.5767 21.0015H30.9867ZM30.9867 4.49402C32.4649 4.49402 33.6646 5.67002 33.6646 7.11902V15.375C33.6646 16.0712 33.3825 16.7389 32.8803 17.2312C32.3781 17.7235 31.6969 18 30.9867 18H5.7384C5.02819 18 4.34707 17.7235 3.84487 17.2312C3.34268 16.7389 3.06055 16.0712 3.06055 15.375V7.11902C3.06057 6.46023 3.31329 5.82554 3.76854 5.34093C4.22379 4.85632 4.84828 4.55723 5.51805 4.50302L5.7384 4.49402H30.9867Z" fill="white"/>
</svg>
