<svg width="17" height="36" viewBox="0 0 17 36" fill="none" xmlns="http://www.w3.org/2000/svg">
<g clip-path="url(#clip0)">
<path d="M16.6188 31.0909V34.3636C16.6188 34.8068 16.4544 35.1903 16.1255 35.5142C15.7965 35.8381 15.407 36 14.9569 36H1.66188C1.21179 36 0.822286 35.8381 0.493371 35.5142C0.164457 35.1903 0 34.8068 0 34.3636V31.0909C0 30.6477 0.164457 30.2642 0.493371 29.9403C0.822286 29.6165 1.21179 29.4545 1.66188 29.4545H3.32377V19.6364H1.66188C1.21179 19.6364 0.822286 19.4744 0.493371 19.1506C0.164457 18.8267 0 18.4432 0 18V14.7273C0 14.2841 0.164457 13.9006 0.493371 13.5767C0.822286 13.2528 1.21179 13.0909 1.66188 13.0909H11.6332C12.0833 13.0909 12.4728 13.2528 12.8017 13.5767C13.1306 13.9006 13.2951 14.2841 13.2951 14.7273V29.4545H14.9569C15.407 29.4545 15.7965 29.6165 16.1255 29.9403C16.4544 30.2642 16.6188 30.6477 16.6188 31.0909ZM13.2951 1.63636V6.54545C13.2951 6.98864 13.1306 7.37216 12.8017 7.69602C12.4728 8.01989 12.0833 8.18182 11.6332 8.18182H4.98565C4.53555 8.18182 4.14605 8.01989 3.81714 7.69602C3.48822 7.37216 3.32377 6.98864 3.32377 6.54545V1.63636C3.32377 1.19318 3.48822 0.809659 3.81714 0.485795C4.14605 0.161932 4.53555 0 4.98565 0H11.6332C12.0833 0 12.4728 0.161932 12.8017 0.485795C13.1306 0.809659 13.2951 1.19318 13.2951 1.63636Z" fill="white"/>
</g>
<defs>
<clipPath id="clip0">
<rect width="16.6214" height="36" fill="white"/>
</clipPath>
</defs>
</svg>
