<svg width="37" height="36" viewBox="0 0 37 36" fill="none" xmlns="http://www.w3.org/2000/svg">
<path d="M35.5004 18.0056C35.5023 15.2252 34.7944 12.4883 33.4409 10.043C32.0873 7.59762 30.1309 5.5211 27.749 4.00162C25.3671 2.48213 22.6349 1.56772 19.8001 1.34125C16.9653 1.11477 14.1175 1.5834 11.5148 2.70467C8.91209 3.82593 6.63676 5.56437 4.89501 7.76245C3.15326 9.96052 2.00016 12.5487 1.54022 15.2925C1.08027 18.0363 1.32802 20.8489 2.26102 23.4754C3.19401 26.102 4.78274 28.4594 6.88324 30.3341C6.94086 30.3999 7.00719 30.458 7.08048 30.5067C10.2023 33.2173 14.2328 34.7144 18.4083 34.7143C22.5837 34.7142 26.6142 33.217 29.7359 30.5062C29.8086 30.4578 29.8744 30.4002 29.9316 30.3349C31.6867 28.772 33.0887 26.8681 34.0476 24.745C35.0066 22.6219 35.5014 20.3264 35.5004 18.0056ZM3.32614 18.0056C3.32427 15.5993 3.92497 13.2291 5.07579 11.1019C6.22662 8.97473 7.89259 7.15526 9.92827 5.80232C11.964 4.44938 14.3075 3.6041 16.7542 3.34026C19.201 3.07643 21.6766 3.40206 23.965 4.28873C26.2535 5.1754 28.2851 6.59615 29.8825 8.42697C31.48 10.2578 32.5947 12.443 33.1294 14.7919C33.6641 17.1408 33.6026 19.5819 32.9501 21.9021C32.2976 24.2224 31.0741 26.3513 29.3863 28.1029C27.806 25.7018 25.4447 23.8907 22.6828 22.9617C24.0596 22.0648 25.1046 20.7586 25.6634 19.2362C26.2221 17.7139 26.265 16.0562 25.7857 14.5082C25.3063 12.9603 24.3302 11.6041 23.0016 10.6403C21.6729 9.67643 20.0623 9.15604 18.4078 9.15604C16.7533 9.15604 15.1427 9.67643 13.8141 10.6403C12.4855 11.6041 11.5094 12.9603 11.03 14.5082C10.5507 16.0562 10.5936 17.7139 11.1523 19.2362C11.7111 20.7586 12.7561 22.0648 14.1328 22.9617C11.371 23.8907 9.00962 25.7017 7.42937 28.1029C4.79175 25.3735 3.32347 21.7603 3.32614 18.0056ZM12.7103 16.6951C12.7103 15.5935 13.0445 14.5167 13.6705 13.6008C14.2966 12.6849 15.1864 11.971 16.2275 11.5495C17.2686 11.1279 18.4142 11.0176 19.5194 11.2325C20.6246 11.4474 21.6398 11.9779 22.4366 12.7568C23.2334 13.5357 23.776 14.5281 23.9959 15.6085C24.2157 16.6889 24.1029 17.8088 23.6717 18.8265C23.2404 19.8442 22.5102 20.7141 21.5732 21.3261C20.6363 21.938 19.5347 22.2647 18.4078 22.2647C16.8973 22.263 15.4491 21.6757 14.381 20.6315C13.3129 19.5874 12.712 18.1717 12.7103 16.6951ZM8.93033 29.4647C9.9146 27.8677 11.3044 26.5465 12.965 25.6294C14.6256 24.7123 16.5005 24.2303 18.4078 24.2303C20.315 24.2303 22.1899 24.7123 23.8505 25.6294C25.5111 26.5465 26.9009 27.8677 27.8852 29.4647C25.2046 31.5892 21.8586 32.7486 18.4078 32.7486C14.9569 32.7486 11.6109 31.5892 8.93033 29.4647Z" fill="#3A3A3A"/>
</svg>
