<svg width="259" height="78" viewBox="0 0 259 78" fill="none" xmlns="http://www.w3.org/2000/svg">
<path d="M69.824 17.2V44.144C69.824 50.2027 68.3093 54.7893 65.28 57.904C62.2933 60.976 58.0053 62.512 52.416 62.512C49.1307 62.512 46.2293 61.936 43.712 60.784C41.2373 59.5893 39.3387 57.968 38.016 55.92C36.6507 57.968 34.752 59.5893 32.32 60.784C29.888 61.936 27.008 62.512 23.68 62.512C18.0907 62.512 13.8027 60.976 10.816 57.904C7.82933 54.7893 6.336 50.2027 6.336 44.144V17.2H12.736V43.952C12.736 52.528 16.384 56.816 23.68 56.816C27.2213 56.816 29.9733 55.7707 31.936 53.68C33.8987 51.5893 34.88 48.3467 34.88 43.952V17.2H41.28V43.952C41.28 48.3467 42.24 51.5893 44.16 53.68C46.1227 55.7707 48.8747 56.816 52.416 56.816C59.7547 56.816 63.424 52.528 63.424 43.952V17.2H69.824Z" fill="white"/>
<path d="M63.72 17.2H82.6C87.336 17.2 91.5387 18.1387 95.208 20.016C98.8773 21.8933 101.715 24.5387 103.72 27.952C105.768 31.3227 106.792 35.2053 106.792 39.6C106.792 43.9947 105.768 47.8987 103.72 51.312C101.715 54.6827 98.8773 57.3067 95.208 59.184C91.5387 61.0613 87.336 62 82.6 62H63.72V17.2ZM82.216 56.432C85.8427 56.432 89.0213 55.728 91.752 54.32C94.5253 52.912 96.6587 50.9493 98.152 48.432C99.6453 45.872 100.392 42.928 100.392 39.6C100.392 36.272 99.6453 33.3493 98.152 30.832C96.6587 28.272 94.5253 26.288 91.752 24.88C89.0213 23.472 85.8427 22.768 82.216 22.768H70.12V56.432H82.216ZM133.683 27.76C136.968 27.76 139.912 28.4853 142.515 29.936C145.118 31.3867 147.144 33.4133 148.595 36.016C150.088 38.6187 150.835 41.6267 150.835 45.04C150.835 48.4533 150.088 51.4827 148.595 54.128C147.144 56.7307 145.118 58.7573 142.515 60.208C139.912 61.6587 136.968 62.384 133.683 62.384C131.166 62.384 128.862 61.8933 126.771 60.912C124.68 59.9307 122.952 58.5013 121.587 56.624V62H115.699V14.512H121.843V33.2C123.208 31.408 124.915 30.064 126.963 29.168C129.011 28.2293 131.251 27.76 133.683 27.76ZM133.171 57.008C135.347 57.008 137.288 56.5173 138.995 55.536C140.744 54.512 142.11 53.104 143.091 51.312C144.115 49.4773 144.627 47.3867 144.627 45.04C144.627 42.6933 144.115 40.624 143.091 38.832C142.11 36.9973 140.744 35.5893 138.995 34.608C137.288 33.6267 135.347 33.136 133.171 33.136C131.038 33.136 129.096 33.6267 127.347 34.608C125.598 35.5893 124.232 36.9973 123.251 38.832C122.27 40.624 121.779 42.6933 121.779 45.04C121.779 47.3867 122.27 49.4773 123.251 51.312C124.232 53.104 125.598 54.512 127.347 55.536C129.096 56.5173 131.038 57.008 133.171 57.008ZM169.628 62.384C166.343 62.384 163.804 61.488 162.012 59.696C160.22 57.8613 159.324 55.3013 159.324 52.016V14.512H165.468V51.504C165.468 53.3387 165.895 54.7467 166.748 55.728C167.644 56.7093 168.967 57.2 170.716 57.2C171.783 57.2 172.785 56.9867 173.724 56.56L174.044 61.616C172.636 62.128 171.164 62.384 169.628 62.384ZM193.79 62.384C190.419 62.384 187.39 61.6373 184.702 60.144C182.014 58.6507 179.902 56.6027 178.366 54C176.872 51.3547 176.126 48.368 176.126 45.04C176.126 41.712 176.872 38.7467 178.366 36.144C179.902 33.4987 182.014 31.4507 184.702 30C187.39 28.5067 190.419 27.76 193.79 27.76C197.16 27.76 200.168 28.5067 202.814 30C205.502 31.4507 207.592 33.4987 209.086 36.144C210.622 38.7467 211.39 41.712 211.39 45.04C211.39 48.368 210.622 51.3547 209.086 54C207.592 56.6027 205.502 58.6507 202.814 60.144C200.168 61.6373 197.16 62.384 193.79 62.384ZM193.79 57.008C195.966 57.008 197.907 56.5173 199.614 55.536C201.363 54.512 202.728 53.104 203.71 51.312C204.691 49.4773 205.182 47.3867 205.182 45.04C205.182 42.6933 204.691 40.624 203.71 38.832C202.728 36.9973 201.363 35.5893 199.614 34.608C197.907 33.6267 195.966 33.136 193.79 33.136C191.614 33.136 189.651 33.6267 187.902 34.608C186.195 35.5893 184.83 36.9973 183.806 38.832C182.824 40.624 182.334 42.6933 182.334 45.04C182.334 47.3867 182.824 49.4773 183.806 51.312C184.83 53.104 186.195 54.512 187.902 55.536C189.651 56.5173 191.614 57.008 193.79 57.008ZM252.335 28.08V57.392C252.335 63.3227 250.863 67.696 247.919 70.512C244.975 73.3707 240.58 74.8 234.735 74.8C231.535 74.8 228.484 74.352 225.583 73.456C222.681 72.6027 220.335 71.3653 218.543 69.744L221.487 65.008C223.065 66.3733 225.007 67.44 227.311 68.208C229.657 69.0187 232.068 69.424 234.543 69.424C238.511 69.424 241.433 68.4853 243.311 66.608C245.231 64.7307 246.191 61.872 246.191 58.032V55.344C244.74 57.0933 242.948 58.416 240.815 59.312C238.724 60.1653 236.441 60.592 233.967 60.592C230.724 60.592 227.78 59.9093 225.135 58.544C222.532 57.136 220.484 55.1947 218.991 52.72C217.497 50.2027 216.751 47.344 216.751 44.144C216.751 40.944 217.497 38.1067 218.991 35.632C220.484 33.1147 222.532 31.1733 225.135 29.808C227.78 28.4427 230.724 27.76 233.967 27.76C236.527 27.76 238.895 28.2293 241.071 29.168C243.289 30.1067 245.103 31.4933 246.511 33.328V28.08H252.335ZM234.671 55.216C236.889 55.216 238.873 54.7467 240.623 53.808C242.415 52.8693 243.801 51.568 244.783 49.904C245.807 48.1973 246.319 46.2773 246.319 44.144C246.319 40.8587 245.231 38.2133 243.055 36.208C240.879 34.16 238.084 33.136 234.671 33.136C231.215 33.136 228.399 34.16 226.223 36.208C224.047 38.2133 222.959 40.8587 222.959 44.144C222.959 46.2773 223.449 48.1973 224.431 49.904C225.455 51.568 226.841 52.8693 228.591 53.808C230.383 54.7467 232.409 55.216 234.671 55.216Z" fill="white"/>
</svg>
