<svg width="164" height="51" viewBox="0 0 164 51" fill="none" xmlns="http://www.w3.org/2000/svg">
<path d="M84.12 18.4C86.2 18.4 88.0533 18.8533 89.68 19.76C91.3333 20.6667 92.6267 21.9467 93.56 23.6C94.4933 25.2533 94.96 27.16 94.96 29.32C94.96 31.48 94.4933 33.4 93.56 35.08C92.6267 36.7333 91.3333 38.0133 89.68 38.92C88.0533 39.8267 86.2 40.28 84.12 40.28C82.6533 40.28 81.3067 40.0267 80.08 39.52C78.88 39.0133 77.8667 38.2533 77.04 37.24V40H72.28V10.32H77.28V21.24C78.1333 20.3067 79.1333 19.6 80.28 19.12C81.4533 18.64 82.7333 18.4 84.12 18.4ZM83.56 36C85.4 36 86.9067 35.3867 88.08 34.16C89.28 32.9333 89.88 31.32 89.88 29.32C89.88 27.32 89.28 25.7067 88.08 24.48C86.9067 23.2533 85.4 22.64 83.56 22.64C82.36 22.64 81.28 22.92 80.32 23.48C79.36 24.0133 78.6 24.7867 78.04 25.8C77.48 26.8133 77.2 27.9867 77.2 29.32C77.2 30.6533 77.48 31.8267 78.04 32.84C78.6 33.8533 79.36 34.64 80.32 35.2C81.28 35.7333 82.36 36 83.56 36ZM106.742 40.28C104.529 40.28 102.795 39.68 101.542 38.48C100.315 37.2533 99.7019 35.5333 99.7019 33.32V10.32H104.702V32.96C104.702 35.0933 105.702 36.16 107.702 36.16C108.369 36.16 108.969 36.0267 109.502 35.76L109.742 39.76C108.809 40.1067 107.809 40.28 106.742 40.28ZM122.349 40.28C120.189 40.28 118.242 39.8133 116.509 38.88C114.775 37.9467 113.415 36.6533 112.429 35C111.469 33.32 110.989 31.4267 110.989 29.32C110.989 27.2133 111.469 25.3333 112.429 23.68C113.415 22.0267 114.775 20.7333 116.509 19.8C118.242 18.8667 120.189 18.4 122.349 18.4C124.535 18.4 126.495 18.8667 128.229 19.8C129.962 20.7333 131.309 22.0267 132.269 23.68C133.255 25.3333 133.749 27.2133 133.749 29.32C133.749 31.4267 133.255 33.32 132.269 35C131.309 36.6533 129.962 37.9467 128.229 38.88C126.495 39.8133 124.535 40.28 122.349 40.28ZM122.349 36C124.189 36 125.709 35.3867 126.909 34.16C128.109 32.9333 128.709 31.32 128.709 29.32C128.709 27.32 128.109 25.7067 126.909 24.48C125.709 23.2533 124.189 22.64 122.349 22.64C120.509 22.64 118.989 23.2533 117.789 24.48C116.615 25.7067 116.029 27.32 116.029 29.32C116.029 31.32 116.615 32.9333 117.789 34.16C118.989 35.3867 120.509 36 122.349 36ZM159.73 18.64V36.76C159.73 44.28 155.89 48.04 148.21 48.04C146.157 48.04 144.21 47.7733 142.37 47.24C140.53 46.7333 139.01 45.9867 137.81 45L140.05 41.24C140.983 42.0133 142.157 42.6267 143.57 43.08C145.01 43.56 146.463 43.8 147.93 43.8C150.277 43.8 151.997 43.2667 153.09 42.2C154.183 41.1333 154.73 39.5067 154.73 37.32V36.2C153.877 37.1333 152.837 37.84 151.61 38.32C150.383 38.8 149.037 39.04 147.57 39.04C145.543 39.04 143.703 38.6133 142.05 37.76C140.423 36.88 139.13 35.6533 138.17 34.08C137.237 32.5067 136.77 30.7067 136.77 28.68C136.77 26.6533 137.237 24.8667 138.17 23.32C139.13 21.7467 140.423 20.5333 142.05 19.68C143.703 18.8267 145.543 18.4 147.57 18.4C149.117 18.4 150.517 18.6533 151.77 19.16C153.05 19.6667 154.117 20.44 154.97 21.48V18.64H159.73ZM148.33 34.8C150.223 34.8 151.77 34.24 152.97 33.12C154.197 31.9733 154.81 30.4933 154.81 28.68C154.81 26.8933 154.197 25.44 152.97 24.32C151.77 23.2 150.223 22.64 148.33 22.64C146.41 22.64 144.837 23.2 143.61 24.32C142.41 25.44 141.81 26.8933 141.81 28.68C141.81 30.4933 142.41 31.9733 143.61 33.12C144.837 34.24 146.41 34.8 148.33 34.8Z" fill="#3A3A3A"/>
<rect width="69" height="51" rx="5" fill="#2A31E1"/>
<path d="M42.468 14.2V28.378C42.468 31.642 41.6293 34.124 39.952 35.824C38.2973 37.5013 35.9173 38.34 32.812 38.34C31.1347 38.34 29.6387 38.0793 28.324 37.558C27.032 37.014 26.0007 36.2773 25.23 35.348C24.4367 36.2773 23.394 37.014 22.102 37.558C20.8327 38.0793 19.3593 38.34 17.682 38.34C14.5767 38.34 12.1853 37.49 10.508 35.79C8.83067 34.09 7.992 31.6193 7.992 28.378V14.2H12.412V28.242C12.412 30.3953 12.854 31.9707 13.738 32.968C14.6447 33.9653 15.9593 34.464 17.682 34.464C21.2407 34.464 23.02 32.39 23.02 28.242V14.2H27.44V28.242C27.44 32.39 29.2307 34.464 32.812 34.464C36.3253 34.464 38.082 32.39 38.082 28.242V14.2H42.468ZM38.5038 14.2H48.9078C51.4465 14.2 53.7018 14.6987 55.6738 15.696C57.6458 16.6707 59.1758 18.0647 60.2638 19.878C61.3518 21.6687 61.8958 23.7427 61.8958 26.1C61.8958 28.4573 61.3518 30.5427 60.2638 32.356C59.1758 34.1467 57.6458 35.5407 55.6738 36.538C53.7018 37.5127 51.4465 38 48.9078 38H38.5038V14.2ZM48.7038 34.26C50.4491 34.26 51.9791 33.9313 53.2938 33.274C54.6311 32.594 55.6511 31.642 56.3538 30.418C57.0791 29.1713 57.4418 27.732 57.4418 26.1C57.4418 24.468 57.0791 23.04 56.3538 21.816C55.6511 20.5693 54.6311 19.6173 53.2938 18.96C51.9791 18.28 50.4491 17.94 48.7038 17.94H42.9238V34.26H48.7038Z" fill="white"/>
</svg>
