<svg width="131" height="43" viewBox="0 0 131 43" fill="none" xmlns="http://www.w3.org/2000/svg">
<path d="M68.096 14.72C69.76 14.72 71.2427 15.0827 72.544 15.808C73.8667 16.5333 74.9013 17.5573 75.648 18.88C76.3947 20.2027 76.768 21.728 76.768 23.456C76.768 25.184 76.3947 26.72 75.648 28.064C74.9013 29.3867 73.8667 30.4107 72.544 31.136C71.2427 31.8613 69.76 32.224 68.096 32.224C66.9227 32.224 65.8453 32.0213 64.864 31.616C63.904 31.2107 63.0933 30.6027 62.432 29.792V32H58.624V8.256H62.624V16.992C63.3067 16.2453 64.1067 15.68 65.024 15.296C65.9627 14.912 66.9867 14.72 68.096 14.72ZM67.648 28.8C69.12 28.8 70.3253 28.3093 71.264 27.328C72.224 26.3467 72.704 25.056 72.704 23.456C72.704 21.856 72.224 20.5653 71.264 19.584C70.3253 18.6027 69.12 18.112 67.648 18.112C66.688 18.112 65.824 18.336 65.056 18.784C64.288 19.2107 63.68 19.8293 63.232 20.64C62.784 21.4507 62.56 22.3893 62.56 23.456C62.56 24.5227 62.784 25.4613 63.232 26.272C63.68 27.0827 64.288 27.712 65.056 28.16C65.824 28.5867 66.688 28.8 67.648 28.8ZM86.1935 32.224C84.4228 32.224 83.0362 31.744 82.0335 30.784C81.0522 29.8027 80.5615 28.4267 80.5615 26.656V8.256H84.5615V26.368C84.5615 28.0747 85.3615 28.928 86.9615 28.928C87.4948 28.928 87.9748 28.8213 88.4015 28.608L88.5935 31.808C87.8468 32.0853 87.0468 32.224 86.1935 32.224ZM98.679 32.224C96.951 32.224 95.3937 31.8507 94.007 31.104C92.6203 30.3573 91.5323 29.3227 90.743 28C89.975 26.656 89.591 25.1413 89.591 23.456C89.591 21.7707 89.975 20.2667 90.743 18.944C91.5323 17.6213 92.6203 16.5867 94.007 15.84C95.3937 15.0933 96.951 14.72 98.679 14.72C100.428 14.72 101.996 15.0933 103.383 15.84C104.77 16.5867 105.847 17.6213 106.615 18.944C107.404 20.2667 107.799 21.7707 107.799 23.456C107.799 25.1413 107.404 26.656 106.615 28C105.847 29.3227 104.77 30.3573 103.383 31.104C101.996 31.8507 100.428 32.224 98.679 32.224ZM98.679 28.8C100.151 28.8 101.367 28.3093 102.327 27.328C103.287 26.3467 103.767 25.056 103.767 23.456C103.767 21.856 103.287 20.5653 102.327 19.584C101.367 18.6027 100.151 18.112 98.679 18.112C97.207 18.112 95.991 18.6027 95.031 19.584C94.0923 20.5653 93.623 21.856 93.623 23.456C93.623 25.056 94.0923 26.3467 95.031 27.328C95.991 28.3093 97.207 28.8 98.679 28.8ZM128.584 14.912V29.408C128.584 35.424 125.512 38.432 119.368 38.432C117.725 38.432 116.168 38.2187 114.696 37.792C113.224 37.3867 112.008 36.7893 111.048 36L112.84 32.992C113.587 33.6107 114.525 34.1013 115.656 34.464C116.808 34.848 117.971 35.04 119.144 35.04C121.021 35.04 122.397 34.6133 123.272 33.76C124.147 32.9067 124.584 31.6053 124.584 29.856V28.96C123.901 29.7067 123.069 30.272 122.088 30.656C121.107 31.04 120.029 31.232 118.856 31.232C117.235 31.232 115.763 30.8907 114.44 30.208C113.139 29.504 112.104 28.5227 111.336 27.264C110.589 26.0053 110.216 24.5653 110.216 22.944C110.216 21.3227 110.589 19.8933 111.336 18.656C112.104 17.3973 113.139 16.4267 114.44 15.744C115.763 15.0613 117.235 14.72 118.856 14.72C120.093 14.72 121.213 14.9227 122.216 15.328C123.24 15.7333 124.093 16.352 124.776 17.184V14.912H128.584ZM119.464 27.84C120.979 27.84 122.216 27.392 123.176 26.496C124.157 25.5787 124.648 24.3947 124.648 22.944C124.648 21.5147 124.157 20.352 123.176 19.456C122.216 18.56 120.979 18.112 119.464 18.112C117.928 18.112 116.669 18.56 115.688 19.456C114.728 20.352 114.248 21.5147 114.248 22.944C114.248 24.3947 114.728 25.5787 115.688 26.496C116.669 27.392 117.928 27.84 119.464 27.84Z" fill="#3A3A3A"/>
<rect width="55" height="42" rx="5" fill="#2A31E1"/>
<path d="M33.652 11.8V22.642C33.652 25.138 33.0107 27.036 31.728 28.336C30.4627 29.6187 28.6427 30.26 26.268 30.26C24.9853 30.26 23.8413 30.0607 22.836 29.662C21.848 29.246 21.0593 28.6827 20.47 27.972C19.8633 28.6827 19.066 29.246 18.078 29.662C17.1073 30.0607 15.9807 30.26 14.698 30.26C12.3233 30.26 10.4947 29.61 9.212 28.31C7.92933 27.01 7.288 25.1207 7.288 22.642V11.8H10.668V22.538C10.668 24.1847 11.006 25.3893 11.682 26.152C12.3753 26.9147 13.3807 27.296 14.698 27.296C17.4193 27.296 18.78 25.71 18.78 22.538V11.8H22.16V22.538C22.16 25.71 23.5293 27.296 26.268 27.296C28.9547 27.296 30.298 25.71 30.298 22.538V11.8H33.652ZM30.6206 11.8H38.5766C40.5179 11.8 42.2426 12.1813 43.7506 12.944C45.2586 13.6893 46.4286 14.7553 47.2606 16.142C48.0926 17.5113 48.5086 19.0973 48.5086 20.9C48.5086 22.7027 48.0926 24.2973 47.2606 25.684C46.4286 27.0533 45.2586 28.1193 43.7506 28.882C42.2426 29.6273 40.5179 30 38.5766 30H30.6206V11.8ZM38.4206 27.14C39.7552 27.14 40.9252 26.8887 41.9306 26.386C42.9532 25.866 43.7332 25.138 44.2706 24.202C44.8252 23.2487 45.1026 22.148 45.1026 20.9C45.1026 19.652 44.8252 18.56 44.2706 17.624C43.7332 16.6707 42.9532 15.9427 41.9306 15.44C40.9252 14.92 39.7552 14.66 38.4206 14.66H34.0006V27.14H38.4206Z" fill="white"/>
</svg>
