<svg width="32" height="32" viewBox="0 0 32 32" fill="none" xmlns="http://www.w3.org/2000/svg">
<g clip-path="url(#clip0)">
<path d="M8.592 19.7853L22.376 22.7133L22.9533 19.928L9.16933 16.9786L8.592 19.7853Z" fill="white"/>
<path d="M8.28667 23.428H22.3747V26.264H8.28667V23.428Z" fill="white"/>
<path d="M10.4 13.108L23.1627 19.1427L24.3453 16.5507L11.576 10.5L10.4 13.108Z" fill="white"/>
<path d="M23.164 19.1439L23.1627 19.1426L23.1613 19.1439H23.164Z" fill="white"/>
<path d="M2.66667 20.572V32H27.9893V20.572H25.172V29.1427H5.48401V20.572H2.66667Z" fill="white"/>
<path d="M13.9373 6.75066L24.7493 15.9147L26.544 13.7147L15.732 4.55066L13.9373 6.75066Z" fill="white"/>
<path d="M29.3333 11.4493L20.9307 0L18.676 1.71467L27.0787 13.164L29.3333 11.4493Z" fill="white"/>
</g>
<defs>
<clipPath id="clip0">
<rect width="32" height="32" fill="white"/>
</clipPath>
</defs>
</svg>
