<svg width="32" height="32" viewBox="0 0 32 32" fill="none" xmlns="http://www.w3.org/2000/svg">
<path d="M26.5533 17.704C26.036 17.0507 26.184 16.76 26.5533 16.176C26.56 16.1693 30.8307 10.268 31.2707 8.26667L31.2733 8.26533C31.492 7.536 31.2733 7 30.216 7H26.7173C25.8267 7 25.416 7.46 25.196 7.97467C25.196 7.97467 23.4147 12.2387 20.8947 15.0027C20.0813 15.8013 19.7053 16.0573 19.2613 16.0573C19.0427 16.0573 18.7027 15.8013 18.7027 15.072V8.26533C18.7027 7.39067 18.4533 7 17.716 7H12.2147C11.656 7 11.324 7.408 11.324 7.788C11.324 8.61733 12.584 8.808 12.7147 11.1413V16.204C12.7147 17.3133 12.5133 17.5173 12.0667 17.5173C10.8773 17.5173 7.99067 13.236 6.28 8.336C5.93467 7.38533 5.59733 7.00133 4.7 7.00133H1.2C0.201333 7.00133 0 7.46133 0 7.976C0 8.88533 1.18933 13.4067 5.53067 19.38C8.424 23.4573 12.4987 25.6667 16.2053 25.6667C18.4333 25.6667 18.7053 25.176 18.7053 24.332C18.7053 20.436 18.504 20.068 19.62 20.068C20.1373 20.068 21.028 20.324 23.108 22.2907C25.4853 24.6227 25.876 25.6667 27.2067 25.6667H30.7053C31.7027 25.6667 32.208 25.176 31.9173 24.208C31.252 22.172 26.756 17.984 26.5533 17.704Z" fill="#E5E5E5"/>
</svg>
