<svg width="35" height="35" viewBox="0 0 35 35" fill="none" xmlns="http://www.w3.org/2000/svg">
<g clip-path="url(#clip0)">
<path d="M34.2256 8.64656L34.2693 8.93239C33.8464 7.43177 32.7046 6.27385 31.2535 5.85239L31.2229 5.8451C28.4943 5.10427 17.5146 5.10427 17.5146 5.10427C17.5146 5.10427 6.56247 5.08968 3.80622 5.8451C2.32747 6.27385 1.18414 7.43177 0.768513 8.90177L0.761221 8.93239C-0.258154 14.2568 -0.265445 20.6545 0.80643 26.3551L0.761221 26.0664C1.18414 27.567 2.32601 28.7249 3.77705 29.1464L3.80768 29.1536C6.5333 29.8959 17.516 29.8959 17.516 29.8959C17.516 29.8959 28.4666 29.8959 31.2243 29.1536C32.7046 28.7249 33.8479 27.567 34.2635 26.097L34.2708 26.0664C34.7346 23.5901 35 20.7405 35 17.8297C35 17.7232 35 17.6153 34.9985 17.5074C35 17.4082 35 17.2901 35 17.172C35 14.2597 34.7346 11.4101 34.2256 8.64656ZM14.0116 22.8245V12.1889L23.1496 17.5147L14.0116 22.8245Z" fill="white"/>
</g>
<defs>
<clipPath id="clip0">
<rect width="35" height="35" fill="white"/>
</clipPath>
</defs>
</svg>
