<svg width="30" height="30" viewBox="0 0 30 30" fill="none" xmlns="http://www.w3.org/2000/svg">
<path d="M15.2335 0.833328C7.28135 0.833328 0.833496 7.28119 0.833496 15.2333C0.833496 23.1855 7.28135 29.6333 15.2335 29.6333C23.1856 29.6333 29.6335 23.1855 29.6335 15.2333C29.6335 7.28119 23.1856 0.833328 15.2335 0.833328ZM20.6014 21.199C19.2964 22.4012 17.5156 23.1083 15.391 23.1083C12.3149 23.1083 9.6535 21.3437 8.35814 18.7723C7.82457 17.7083 7.51921 16.5062 7.51921 15.2333C7.51921 13.9605 7.82457 12.7583 8.35814 11.6944C9.6535 9.11976 12.3149 7.35511 15.391 7.35511C17.5124 7.35511 19.2931 8.13619 20.6592 9.40583L18.4028 11.6655C17.5864 10.8844 16.5481 10.489 15.3942 10.489C13.3435 10.489 11.6078 11.8744 10.9874 13.7355C10.8299 14.208 10.7399 14.7126 10.7399 15.2333C10.7399 15.754 10.8299 16.2587 10.9874 16.7312C11.6078 18.5923 13.3435 19.9776 15.391 19.9776C16.4517 19.9776 17.3517 19.698 18.0556 19.2255C18.8914 18.6662 19.4442 17.8337 19.6274 16.8469H15.391V13.7998H22.8064C22.8996 14.3173 22.9478 14.854 22.9478 15.4101C22.9478 17.8112 22.0896 19.8265 20.6014 21.199Z" fill="white"/>
</svg>
