<svg width="30" height="30" viewBox="0 0 30 30" fill="none" xmlns="http://www.w3.org/2000/svg">
<path d="M15.2335 0.833328C7.28135 0.833328 0.833496 7.28119 0.833496 15.2333C0.833496 23.1855 7.28135 29.6333 15.2335 29.6333C23.1856 29.6333 29.6335 23.1855 29.6335 15.2333C29.6335 7.28119 23.1856 0.833328 15.2335 0.833328ZM22.1539 11.688C22.1635 11.839 22.1635 11.9965 22.1635 12.1508C22.1635 16.8694 18.5699 22.3048 12.0031 22.3048C9.97814 22.3048 8.101 21.7165 6.51957 20.704C6.80885 20.7362 7.08528 20.749 7.381 20.749C9.05243 20.749 10.5889 20.1833 11.8135 19.2255C10.2449 19.1933 8.92707 18.1648 8.47707 16.7505C9.02671 16.8308 9.52171 16.8308 10.0874 16.6862C9.27976 16.5221 8.55381 16.0835 8.03291 15.4448C7.512 14.8061 7.22827 14.0068 7.22993 13.1826V13.1376C7.70243 13.4044 8.2585 13.5683 8.84028 13.5908C8.3512 13.2649 7.95011 12.8233 7.67257 12.3052C7.39502 11.7871 7.24961 11.2086 7.24921 10.6208C7.24921 9.95547 7.42278 9.34797 7.73457 8.82083C8.63104 9.92441 9.7497 10.827 11.0178 11.4699C12.286 12.1129 13.6752 12.4818 15.0953 12.5526C14.5906 10.1258 16.4035 8.1619 18.5828 8.1619C19.6114 8.1619 20.5371 8.59261 21.1896 9.2869C21.9964 9.13583 22.7678 8.83369 23.4556 8.42869C23.1889 9.25476 22.6296 9.95226 21.8871 10.3926C22.6071 10.3155 23.3014 10.1162 23.9442 9.83654C23.4589 10.5501 22.8514 11.1833 22.1539 11.688Z" fill="white"/>
</svg>
