<svg width="36" height="37" viewBox="0 0 36 37" fill="none" xmlns="http://www.w3.org/2000/svg">
<path d="M18.28 1.27039C8.73743 1.27039 1 9.00781 1 18.5504C1 28.093 8.73743 35.8304 18.28 35.8304C27.8226 35.8304 35.56 28.093 35.56 18.5504C35.56 9.00781 27.8226 1.27039 18.28 1.27039ZM24.7214 25.7092C23.1554 27.1518 21.0186 28.0004 18.469 28.0004C14.7777 28.0004 11.584 25.8828 10.0296 22.7971C9.38929 21.5204 9.02286 20.0778 9.02286 18.5504C9.02286 17.023 9.38929 15.5804 10.0296 14.3037C11.584 11.2141 14.7777 9.09653 18.469 9.09653C21.0147 9.09653 23.1516 10.0338 24.7909 11.5574L22.0831 14.269C21.1034 13.3317 19.8576 12.8572 18.4729 12.8572C16.012 12.8572 13.9291 14.5197 13.1847 16.753C12.9957 17.32 12.8877 17.9255 12.8877 18.5504C12.8877 19.1752 12.9957 19.7808 13.1847 20.3478C13.9291 22.5811 16.012 24.2435 18.469 24.2435C19.7419 24.2435 20.8219 23.908 21.6666 23.341C22.6694 22.6698 23.3329 21.6708 23.5527 20.4867H18.469V16.8301H27.3674C27.4793 17.4511 27.5371 18.0952 27.5371 18.7625C27.5371 21.6438 26.5073 24.0622 24.7214 25.7092Z" fill="#2A31E1"/>
</svg>
