<svg width="36" height="37" viewBox="0 0 36 37" fill="none" xmlns="http://www.w3.org/2000/svg">
<path d="M18.28 1.27039C8.73743 1.27039 1 9.00781 1 18.5504C1 28.093 8.73743 35.8304 18.28 35.8304C27.8226 35.8304 35.56 28.093 35.56 18.5504C35.56 9.00781 27.8226 1.27039 18.28 1.27039ZM26.5844 14.296C26.596 14.4772 26.596 14.6662 26.596 14.8514C26.596 20.5137 22.2837 27.0361 14.4036 27.0361C11.9736 27.0361 9.721 26.3302 7.82329 25.1152C8.17043 25.1538 8.50214 25.1692 8.857 25.1692C10.8627 25.1692 12.7064 24.4904 14.176 23.341C12.2937 23.3024 10.7123 22.0681 10.1723 20.371C10.8319 20.4674 11.4259 20.4674 12.1047 20.2938C11.1355 20.0969 10.2644 19.5705 9.63929 18.8041C9.01421 18.0377 8.67373 17.0785 8.67571 16.0895V16.0355C9.24271 16.3557 9.91 16.5524 10.6081 16.5794C10.0212 16.1883 9.53994 15.6583 9.20689 15.0366C8.87383 14.4149 8.69933 13.7207 8.69886 13.0154C8.69886 12.217 8.90714 11.488 9.28129 10.8554C10.3571 12.1797 11.6994 13.2628 13.2212 14.0343C14.743 14.8058 16.4101 15.2485 18.1141 15.3335C17.5086 12.4214 19.684 10.0647 22.2991 10.0647C23.5334 10.0647 24.6443 10.5815 25.4273 11.4147C26.3954 11.2334 27.3211 10.8708 28.1466 10.3848C27.8264 11.3761 27.1553 12.2131 26.2643 12.7415C27.1283 12.649 27.9614 12.4098 28.7329 12.0742C28.1504 12.9305 27.4214 13.6904 26.5844 14.296Z" fill="#2A31E1"/>
</svg>
