<svg width="36" height="37" viewBox="0 0 36 37" fill="none" xmlns="http://www.w3.org/2000/svg">
<g clip-path="url(#clip0)">
<path d="M18.0002 0.990394C8.45662 0.990394 0.720215 8.72679 0.720215 18.2704C0.720215 27.814 8.45662 35.5504 18.0002 35.5504C27.5438 35.5504 35.2802 27.814 35.2802 18.2704C35.2802 8.72679 27.5438 0.990394 18.0002 0.990394ZM24.6458 20.4862C24.6458 20.4862 26.174 21.9946 26.5502 22.6948C26.561 22.7092 26.5664 22.7236 26.57 22.7308C26.723 22.9882 26.759 23.188 26.6834 23.3374C26.5574 23.5858 26.1254 23.7082 25.9778 23.719H23.2778C23.0906 23.719 22.6982 23.6704 22.223 23.3428C21.8576 23.0872 21.4976 22.6678 21.1466 22.2592C20.6228 21.6508 20.1692 21.1252 19.712 21.1252C19.6539 21.1251 19.5962 21.1342 19.541 21.1522C19.1954 21.2638 18.7526 21.757 18.7526 23.071C18.7526 23.4814 18.4286 23.7172 18.2 23.7172H16.9634C16.5422 23.7172 14.348 23.5696 12.404 21.5194C10.0244 19.0084 7.88241 13.972 7.86441 13.9252C7.72941 13.5994 8.00841 13.4248 8.31261 13.4248H11.0396C11.4032 13.4248 11.522 13.6462 11.6048 13.8424C11.702 14.071 12.0584 14.98 12.6434 16.0024C13.592 17.6692 14.1734 18.346 14.6396 18.346C14.727 18.345 14.8129 18.3227 14.8898 18.2812C15.4982 17.9428 15.3848 15.7738 15.3578 15.3238C15.3578 15.2392 15.356 14.3536 15.0446 13.9288C14.8214 13.621 14.4416 13.504 14.2112 13.4608C14.3045 13.3321 14.4273 13.2278 14.5694 13.1566C14.987 12.9478 15.7394 12.9172 16.4864 12.9172H16.9022C17.7122 12.928 17.921 12.9802 18.2144 13.054C18.8084 13.1962 18.821 13.5796 18.7688 14.8918C18.7526 15.2644 18.7364 15.6856 18.7364 16.1824C18.7364 16.2904 18.731 16.4056 18.731 16.528C18.713 17.1958 18.6914 17.9536 19.163 18.265C19.2245 18.3036 19.2956 18.3241 19.3682 18.3244C19.532 18.3244 20.0252 18.3244 21.3608 16.033C21.7727 15.2955 22.1307 14.5291 22.4318 13.7398C22.4588 13.693 22.538 13.549 22.6316 13.4932C22.7007 13.458 22.7773 13.4401 22.8548 13.441H26.0606C26.4098 13.441 26.6492 13.4932 26.6942 13.6282C26.7734 13.8424 26.6798 14.4958 25.2164 16.4776L24.563 17.3398C23.2364 19.0786 23.2364 19.1668 24.6458 20.4862Z" fill="#2A31E1"/>
</g>
<defs>
<clipPath id="clip0">
<rect width="36" height="36" fill="white" transform="translate(0 0.270386)"/>
</clipPath>
</defs>
</svg>
