<svg width="26" height="26" viewBox="0 0 26 26" fill="none" xmlns="http://www.w3.org/2000/svg">
<path d="M24.4621 6.00889L20.2226 1.74778C19.9425 1.46905 19.5634 1.31258 19.1682 1.31258C18.773 1.31258 18.3939 1.46905 18.1137 1.74778L3.0843 16.7556L1.71207 22.6778C1.66474 22.8943 1.66636 23.1186 1.71682 23.3344C1.76729 23.5502 1.86532 23.7519 2.00375 23.925C2.14219 24.098 2.31753 24.238 2.51697 24.3346C2.71642 24.4312 2.93492 24.482 3.15652 24.4833C3.25977 24.4938 3.36382 24.4938 3.46707 24.4833L9.4543 23.1111L24.4621 8.11778C24.7408 7.83763 24.8973 7.45852 24.8973 7.06333C24.8973 6.66815 24.7408 6.28903 24.4621 6.00889ZM8.73207 21.8111L3.12041 22.9883L4.39874 17.485L15.6437 6.28333L19.9771 10.6167L8.73207 21.8111ZM20.9449 9.56944L16.6115 5.23611L19.1249 2.73722L23.386 7.07056L20.9449 9.56944Z" fill="white"/>
</svg>
