<svg width="20" height="20" viewBox="0 0 20 20" fill="none" xmlns="http://www.w3.org/2000/svg">
<path d="M10.0002 18.3333C10.9168 18.3333 11.6668 17.5833 11.6668 16.6667H8.3335C8.3335 17.1087 8.50909 17.5326 8.82165 17.8452C9.13421 18.1578 9.55814 18.3333 10.0002 18.3333ZM15.0002 13.3333V9.16668C15.0002 6.60834 13.6335 4.46668 11.2502 3.90001V3.33334C11.2502 2.64168 10.6918 2.08334 10.0002 2.08334C9.3085 2.08334 8.75016 2.64168 8.75016 3.33334V3.90001C6.3585 4.46668 5.00016 6.60001 5.00016 9.16668V13.3333L3.3335 15V15.8333H16.6668V15L15.0002 13.3333Z" fill="#2A31E1"/>
</svg>
