<svg width="25" height="24" viewBox="0 0 25 24" fill="none" xmlns="http://www.w3.org/2000/svg">
<g clip-path="url(#clip0)">
<path d="M10.9143 20.5271C13.2438 20.5266 15.5062 19.7643 17.3412 18.3615L23.1106 24.0013L24.9663 22.1872L19.197 16.5474C20.6327 14.7534 21.4131 12.5413 21.4136 10.2635C21.4136 4.60448 16.7034 0 10.9143 0C5.12528 0 0.415039 4.60448 0.415039 10.2635C0.415039 15.9226 5.12528 20.5271 10.9143 20.5271ZM10.9143 2.56588C15.2571 2.56588 18.7888 6.01828 18.7888 10.2635C18.7888 14.5088 15.2571 17.9612 10.9143 17.9612C6.57156 17.9612 3.03986 14.5088 3.03986 10.2635C3.03986 6.01828 6.57156 2.56588 10.9143 2.56588Z" fill="#3A3A3A"/>
</g>
<defs>
<clipPath id="clip0">
<rect width="24.5513" height="24" fill="white" transform="translate(0.415039)"/>
</clipPath>
</defs>
</svg>
