<svg width="15" height="11" viewBox="0 0 15 11" fill="none" xmlns="http://www.w3.org/2000/svg">
<path fill-rule="evenodd" clip-rule="evenodd" d="M14.0095 5.3125C14.0095 5.3125 11.3845 0.5 7.00952 0.5C2.63452 0.5 0.00952148 5.3125 0.00952148 5.3125C0.00952148 5.3125 2.63452 10.125 7.00952 10.125C11.3845 10.125 14.0095 5.3125 14.0095 5.3125ZM1.0359 5.3125C1.45898 5.95551 1.94559 6.5544 2.4884 7.10013C3.61452 8.228 5.15452 9.25 7.00952 9.25C8.86452 9.25 10.4036 8.228 11.5315 7.10013C12.0743 6.5544 12.5609 5.95551 12.984 5.3125C12.5609 4.66948 12.0743 4.0706 11.5315 3.52487C10.4036 2.397 8.86365 1.375 7.00952 1.375C5.15452 1.375 3.6154 2.397 2.48752 3.52487C1.94471 4.0706 1.4581 4.66948 1.03502 5.3125H1.0359Z" fill="#3A3A3A"/>
<path fill-rule="evenodd" clip-rule="evenodd" d="M7.00952 3.125C6.42936 3.125 5.87296 3.35547 5.46273 3.7657C5.05249 4.17594 4.82202 4.73234 4.82202 5.3125C4.82202 5.89266 5.05249 6.44906 5.46273 6.8593C5.87296 7.26953 6.42936 7.5 7.00952 7.5C7.58968 7.5 8.14608 7.26953 8.55632 6.8593C8.96655 6.44906 9.19702 5.89266 9.19702 5.3125C9.19702 4.73234 8.96655 4.17594 8.55632 3.7657C8.14608 3.35547 7.58968 3.125 7.00952 3.125ZM3.94702 5.3125C3.94702 4.50027 4.26968 3.72132 4.84401 3.14699C5.41834 2.57266 6.1973 2.25 7.00952 2.25C7.82175 2.25 8.60071 2.57266 9.17504 3.14699C9.74937 3.72132 10.072 4.50027 10.072 5.3125C10.072 6.12473 9.74937 6.90368 9.17504 7.47801C8.60071 8.05234 7.82175 8.375 7.00952 8.375C6.1973 8.375 5.41834 8.05234 4.84401 7.47801C4.26968 6.90368 3.94702 6.12473 3.94702 5.3125Z" fill="#3A3A3A"/>
</svg>
